<?xml version="1.0" encoding="UTF-8"?>
<svg width="451px" height="72px" viewBox="0 0 451 72" version="1.1" xmlns="http://www.w3.org/2000/svg" xmlns:xlink="http://www.w3.org/1999/xlink">
    <!-- Generator: Sketch 51.1 (57501) - http://www.bohemiancoding.com/sketch -->
    <title>Frontline_Logo_White</title>
    <desc>Created with Sketch.</desc>
    <defs></defs>
    <g id="Frontline_Logo_White" stroke="none" stroke-width="1" fill="none" fill-rule="evenodd">
        <g id="Logo" fill="#FFFFFF">
            <path d="M255.263153,39.3522267 L273.012709,39.3522267 C274.366135,36.9997452 276.895791,35.417004 279.793103,35.417004 C284.11616,35.417004 287.62069,38.9407225 287.62069,43.2874494 C287.62069,47.6341763 284.11616,51.1578947 279.793103,51.1578947 C276.895791,51.1578947 274.366135,49.5751536 273.012709,47.2226721 L255.263153,47.2226721 C253.909727,49.5751536 251.380071,51.1578947 248.482759,51.1578947 C244.159702,51.1578947 240.655172,47.6341763 240.655172,43.2874494 C240.655172,38.9407225 244.159702,35.417004 248.482759,35.417004 C251.380071,35.417004 253.909727,36.9997452 255.263153,39.3522267 Z" id="Combined-Shape"></path>
            <path d="M0.723999953,2.07779757 C0.723999953,1.19630328 1.09972033,0.755562753 1.85117237,0.755562753 L43.1808275,0.755562753 C43.8070376,0.755562753 44.1201379,1.10185889 44.1201379,1.79446154 L44.1201379,6.61117409 C44.1201379,7.36674062 43.7131075,7.74451822 42.8990344,7.74451822 L10.9624827,7.74451822 C10.4615147,7.74451822 10.1327594,7.82322189 9.97620685,7.98063158 C9.81965434,8.13804127 9.74137926,8.43711521 9.74137926,8.87786235 L9.74137926,32.111417 C9.74137926,32.8040197 10.0857896,33.1503158 10.7746206,33.1503158 L35.8542068,33.1503158 C36.5430379,33.1503158 36.8874482,33.4651305 36.8874482,34.0947692 L36.8874482,39.1003725 C36.8874482,39.4151919 36.8091731,39.6355621 36.6526206,39.7614899 C36.4960681,39.8874176 36.2299329,39.9503806 35.8542068,39.9503806 L10.7746206,39.9503806 C10.0857896,39.9503806 9.74137926,40.2966767 9.74137926,40.9892794 L9.74137926,69.6062186 C9.74137926,70.424749 9.30303882,70.8340081 8.42634478,70.8340081 L2.03903444,70.8340081 C1.53806641,70.8340081 1.19365607,70.7395637 1.00579306,70.5506721 C0.817930049,70.3617804 0.723999953,70.0154843 0.723999953,69.5117733 L0.723999953,2.07779757 Z M53.0122758,70.8340081 C52.1355818,70.8340081 51.6972414,70.424749 51.6972414,69.6062186 L51.6972414,22.0057652 C51.6972414,21.1872348 52.0416517,20.7779757 52.7304827,20.7779757 L58.1784827,20.7779757 C58.8673138,20.7779757 59.2117241,21.1242718 59.2117241,21.8168745 L59.2117241,27.9558219 C59.2117241,28.3336051 59.3213092,28.5539754 59.5404827,28.6169393 C59.7596562,28.6799031 59.9944815,28.5539773 60.2449655,28.2391579 C65.0041617,22.6353728 69.8572166,19.8335223 74.8042758,19.8335223 C76.9960109,19.8335223 78.091862,20.2427813 78.091862,21.0613117 L78.091862,26.7280324 C78.091862,27.3576712 77.8100718,27.6095229 77.2464827,27.4835951 C76.1193047,27.2947035 74.7103533,27.2002591 73.0195862,27.2002591 C71.2035771,27.2002591 69.2310451,27.735444 67.101931,28.80583 C64.9728169,29.8762159 63.1881451,31.2614004 61.747862,32.9614251 C60.307579,34.6614498 59.5874483,36.3929305 59.5874483,38.155919 L59.5874483,69.4173279 C59.5874483,70.3617861 59.1177978,70.8340081 58.1784827,70.8340081 L53.0122758,70.8340081 Z M108.869931,71.7784615 C104.173356,71.7784615 100.024777,70.6923509 96.424069,68.5200972 C92.8233613,66.3478434 90.0367685,63.3098819 88.0642069,59.4061215 C86.0916453,55.502361 85.1053793,51.0634743 85.1053793,46.0893279 C85.1053793,40.9892539 86.1229553,36.4559227 88.1581379,32.4891984 C90.1933205,28.5224741 93.0112234,25.4215496 96.611931,23.186332 C100.212639,20.9511143 104.329908,19.8335223 108.963862,19.8335223 C113.597816,19.8335223 117.715085,20.9511143 121.315793,23.186332 C124.916501,25.4215496 127.703094,28.5224741 129.675655,32.4891984 C131.648217,36.4559227 132.634483,40.9577724 132.634483,45.9948826 C132.634483,50.9690289 131.632562,55.4079157 129.62869,59.3116761 C127.624818,63.2154365 124.82257,66.2691388 121.221862,68.4728745 C117.621154,70.6766102 113.503885,71.7784615 108.869931,71.7784615 Z M109.057793,65.8284049 C113.942231,65.8284049 117.7464,64.049702 120.470414,60.4922429 C123.194427,56.9347838 124.556414,52.0394158 124.556414,45.8059919 C124.556414,39.6355319 123.163117,34.7401639 120.376483,31.1197409 C117.589848,27.4993179 113.785679,25.6891336 108.963862,25.6891336 C104.079424,25.6891336 100.22829,27.4993179 97.4103448,31.1197409 C94.5923997,34.7401639 93.1834483,39.6355319 93.1834483,45.8059919 C93.1834483,51.9764519 94.5923997,56.8560792 97.4103448,60.4450202 C100.22829,64.0339613 104.110734,65.8284049 109.057793,65.8284049 Z M147.162483,70.8340081 C146.285789,70.8340081 145.847448,70.424749 145.847448,69.6062186 L145.847448,22.0057652 C145.847448,21.1872348 146.191859,20.7779757 146.88069,20.7779757 L152.516552,20.7779757 C153.205383,20.7779757 153.549793,21.1242718 153.549793,21.8168745 L153.549793,27.2947045 C153.549793,27.9873071 153.831583,28.0817515 154.395172,27.5780405 C157.901949,24.8076299 160.892057,22.8242975 163.365586,21.6279838 C165.839116,20.4316701 168.610054,19.8335223 171.678483,19.8335223 C176.437679,19.8335223 180.147918,21.1242624 182.80931,23.7057814 C185.470703,26.2873004 186.801379,29.7502617 186.801379,34.0947692 L186.801379,69.3228826 C186.801379,70.3303046 186.331729,70.8340081 185.392414,70.8340081 L180.132276,70.8340081 C179.318203,70.8340081 178.911172,70.424749 178.911172,69.6062186 L178.911172,35.8892308 C178.911172,32.7410369 178.112767,30.316964 176.515931,28.6169393 C174.919095,26.9169146 172.461258,26.066915 169.142345,26.066915 C166.512263,26.066915 164.085735,26.6493221 161.86269,27.8141538 C159.639644,28.9789856 156.931326,30.9465772 153.737655,33.7169879 L153.737655,69.4173279 C153.737655,69.921039 153.62807,70.2830758 153.408897,70.5034494 C153.189723,70.723823 152.829658,70.8340081 152.32869,70.8340081 L147.162483,70.8340081 Z M215.419035,26.633587 C214.918067,26.633587 214.667586,26.9169202 214.667586,27.4835951 L214.667586,57.4227692 C214.667586,60.2561437 215.137237,62.2079946 216.076552,63.2783806 C217.015867,64.3487665 218.550058,64.8839514 220.679172,64.8839514 L227.160414,64.8839514 C227.849245,64.8839514 228.193655,65.2302475 228.193655,65.9228502 L228.099724,69.1339919 C228.099724,69.7636307 227.724004,70.1728897 226.972552,70.3617814 C225.344406,70.6766008 222.401263,70.8340081 218.143035,70.8340081 C214.197911,70.8340081 211.317388,69.9053048 209.501379,68.0478704 C207.68537,66.1904361 206.777379,63.2469189 206.777379,59.2172308 L206.777379,27.6724858 C206.777379,26.9798832 206.464279,26.633587 205.838069,26.633587 L198.323586,26.633587 C197.634755,26.633587 197.290345,26.3187724 197.290345,25.6891336 L197.290345,21.7224291 C197.290345,21.0927904 197.603445,20.7779757 198.229655,20.7779757 L206.213793,20.7779757 C206.65214,20.7779757 206.87131,20.526124 206.87131,20.022413 L207.904552,5.00560324 C207.904552,4.18707283 208.248962,3.77781377 208.937793,3.77781377 L213.634345,3.77781377 C214.385797,3.77781377 214.761517,4.2185543 214.761517,5.10004858 L214.761517,20.022413 C214.761517,20.526124 215.011998,20.7779757 215.512966,20.7779757 L227.348276,20.7779757 C228.037107,20.7779757 228.381517,21.0613089 228.381517,21.6279838 L228.381517,25.6891336 C228.381517,26.3187724 228.037107,26.633587 227.348276,26.633587 L215.419035,26.633587 Z" id="Front"></path>
            <path d="M310.665103,69.2284372 C310.665103,69.858076 310.539863,70.2830758 310.289379,70.5034494 C310.038895,70.723823 309.600555,70.8340081 308.974345,70.8340081 L304.089931,70.8340081 C303.526342,70.8340081 303.150622,70.7395637 302.962759,70.5506721 C302.774896,70.3617804 302.680966,70.0154843 302.680966,69.5117733 L302.774897,2.07779757 C302.774897,1.19630328 303.150617,0.755562753 303.902069,0.755562753 L309.537931,0.755562753 C310.289383,0.755562753 310.665103,1.16482182 310.665103,1.98335223 L310.665103,69.2284372 Z M334.961931,10.0112065 C334.961931,10.6408453 334.836691,11.0973265 334.586207,11.380664 C334.335723,11.6640014 333.897382,11.805668 333.271172,11.805668 L327.823172,11.805668 C326.883857,11.805668 326.414207,11.2704831 326.414207,10.2000972 L326.414207,2.26668826 C326.414207,1.25926622 326.852547,0.755562753 327.729241,0.755562753 L333.646897,0.755562753 C334.022623,0.755562753 334.335723,0.881488619 334.586207,1.13334413 C334.836691,1.38519964 334.961931,1.73149577 334.961931,2.17224291 L334.961931,10.0112065 Z M334.586207,69.2284372 C334.586207,69.858076 334.460967,70.2830758 334.210483,70.5034494 C333.959999,70.723823 333.521658,70.8340081 332.895448,70.8340081 L328.104966,70.8340081 C327.541377,70.8340081 327.165656,70.7395637 326.977793,70.5506721 C326.78993,70.3617804 326.696,70.0154843 326.696,69.5117733 L326.696,22.1002105 C326.696,21.2187162 327.07172,20.7779757 327.823172,20.7779757 L333.552966,20.7779757 C334.241797,20.7779757 334.586207,21.1872348 334.586207,22.0057652 L334.586207,69.2284372 Z M352.026069,70.8340081 C351.149375,70.8340081 350.711035,70.424749 350.711035,69.6062186 L350.711035,22.0057652 C350.711035,21.1872348 351.055445,20.7779757 351.744276,20.7779757 L357.380138,20.7779757 C358.068969,20.7779757 358.413379,21.1242718 358.413379,21.8168745 L358.413379,27.2947045 C358.413379,27.9873071 358.69517,28.0817515 359.258759,27.5780405 C362.765535,24.8076299 365.755643,22.8242975 368.229172,21.6279838 C370.702702,20.4316701 373.47364,19.8335223 376.542069,19.8335223 C381.301265,19.8335223 385.011504,21.1242624 387.672897,23.7057814 C390.334289,26.2873004 391.664966,29.7502617 391.664966,34.0947692 L391.664966,69.3228826 C391.664966,70.3303046 391.195315,70.8340081 390.256,70.8340081 L384.995862,70.8340081 C384.181789,70.8340081 383.774759,70.424749 383.774759,69.6062186 L383.774759,35.8892308 C383.774759,32.7410369 382.976353,30.316964 381.379517,28.6169393 C379.782682,26.9169146 377.324844,26.066915 374.005931,26.066915 C371.375849,26.066915 368.949322,26.6493221 366.726276,27.8141538 C364.50323,28.9789856 361.794913,30.9465772 358.601241,33.7169879 L358.601241,69.4173279 C358.601241,69.921039 358.491656,70.2830758 358.272483,70.5034494 C358.053309,70.723823 357.693244,70.8340081 357.192276,70.8340081 L352.026069,70.8340081 Z M412.392414,48.9226883 C412.392414,51.9449544 413.1282,54.7468049 414.599793,57.3283239 C416.071387,59.9098429 418.059574,61.9561382 420.564414,63.4672713 C423.069254,64.9784043 425.824537,65.7339595 428.830345,65.7339595 C435.092445,65.7339595 439.97681,63.1209978 443.483586,57.894996 C443.73407,57.6431404 443.953241,57.5014738 444.141104,57.4699919 C444.328967,57.43851 444.548137,57.4857322 444.798621,57.6116599 L448.743724,59.5950121 C449.244692,59.9098315 449.307312,60.3505721 448.931586,60.917247 C446.489367,64.6950796 443.577534,67.4497079 440.196,69.1812146 C436.814466,70.9127212 432.775472,71.7784615 428.078897,71.7784615 C423.507563,71.7784615 419.405949,70.7080917 415.773931,68.5673198 C412.141913,66.426548 409.308355,63.4200679 407.273172,59.5477895 C405.23799,55.675511 404.220414,51.252365 404.220414,46.2782186 C404.220414,40.926289 405.253645,36.2512912 407.320138,32.253085 C409.386631,28.2548788 412.220189,25.1854358 415.820897,23.044664 C419.421604,20.9038921 423.476253,19.8335223 427.984966,19.8335223 C432.493678,19.8335223 436.454397,20.8409292 439.867241,22.8557733 C443.280086,24.8706174 445.925784,27.8141345 447.804414,31.686413 C449.683044,35.5586914 450.622345,40.1392448 450.622345,45.4282105 L450.622345,45.8059919 C450.622345,46.3726668 450.528415,46.7976666 450.340552,47.081004 C450.152689,47.3643415 449.776968,47.5060081 449.213379,47.5060081 L413.237793,47.5060081 C412.674204,47.5060081 412.392414,47.9782301 412.392414,48.9226883 Z M441.13531,42.3115142 C441.824141,42.3115142 442.262482,42.2328105 442.450345,42.0754008 C442.638208,41.9179911 442.732138,41.5559543 442.732138,40.9892794 C442.732138,38.2188687 442.152902,35.6531292 440.994414,33.2919838 C439.835925,30.9308384 438.145184,29.0419504 435.922138,27.6252632 C433.699092,26.2085759 431.116015,25.5002429 428.172828,25.5002429 C424.979157,25.5002429 422.192564,26.3030203 419.812966,27.9085992 C417.433367,29.5141781 415.617386,31.5919549 414.364966,34.1419919 C413.112546,36.6920289 412.517655,39.4151758 412.580276,42.3115142 L441.13531,42.3115142 Z" id="line"></path>
        </g>
    </g>
</svg>